<?xml version="1.0" encoding="UTF-8"?>
<!DOCTYPE svg PUBLIC "-//W3C//DTD SVG 1.1//EN" "http://www.w3.org/Graphics/SVG/1.1/DTD/svg11.dtd">
<!-- Creator: CorelDRAW -->
<svg xmlns="http://www.w3.org/2000/svg" xml:space="preserve" width="6.629mm" height="4.628mm" style="shape-rendering:geometricPrecision; text-rendering:geometricPrecision; image-rendering:optimizeQuality; fill-rule:evenodd; clip-rule:evenodd"
viewBox="0 0 6.629 4.628"
 xmlns:xlink="http://www.w3.org/1999/xlink"
 version="1.1">
 <defs>
  <style type="text/css">
   <![CDATA[
    .fil0 {fill:black}
    .fil1 {fill:#F27C4A}
   ]]>
  </style>
 </defs>
 <g id="Layer_x0020_1">
  <metadata id="CorelCorpID_0Corel-Layer"/>
  <path class="fil0" d="M1.9251 1.6289c-0.01,-0.02 -0.3798,-1.2294 -0.3798,-1.2394 -0.05,-0.1499 -0.2099,-0.4098 -0.4598,-0.4098l-0.3998 0c-0.05,0 -0.07,0.05 -0.04,0.09 0.1,0.1 0.09,0.2299 0.05,0.3798l-0.3698 1.1795c-0.06,0.1899 -0.1599,0.2799 -0.2799,0.3498 -0.05,0.03 -0.03,0.08 0.01,0.08l0.6197 0c0.04,0 0.06,-0.05 0.03,-0.08 -0.2499,-0.2399 -0.2199,-0.4398 -0.1899,-0.5597l0.7097 0c0.04,0.2499 0.04,0.4598 -0.03,0.5597 -0.03,0.03 0,0.08 0.04,0.08l0.9096 0c0.04,0 0.06,-0.05 0,-0.08 -0.1699,-0.11 -0.1799,-0.1999 -0.2199,-0.3498l-0.0001 -0.0001zm-1.0695 -1.3094c0.09,0.08 0.2699,0.5498 0.3498,0.9896l-0.6497 0 0.2999 -0.9896z"/>
  <path class="fil0" d="M3.4145 0.5894c0,0.2499 -0.1799,0.4598 -0.3998,0.4898l0 -0.06c0,-0.2599 -0.01,-0.7097 0.09,-0.8896 0.1799,0.07 0.3099,0.2499 0.3099,0.4598l-0.0001 0zm-0.9796 -0.1799l0 1.2195c0,0.1499 -0.02,0.2399 -0.1599,0.3498 -0.04,0.03 -0.03,0.08 0.01,0.08l0.8196 0c0.09,0 0.09,-0.07 0.04,-0.1 -0.11,-0.09 -0.1299,-0.4498 -0.1299,-0.7297 0.03,-0.02 0.07,-0.03 0.1,-0.03 0.2199,0 0.2599,0.2499 0.2999,0.4298 0.04,0.1499 0.06,0.2399 -0.05,0.3498 -0.03,0.03 -0.02,0.08 0.03,0.08l0.7896 0c0.09,0 0.08,-0.07 0.03,-0.1 -0.3598,-0.2199 -0.4598,-0.6197 -0.7197,-0.7896 0.2899,-0.07 0.4998,-0.2999 0.4998,-0.5797 0,-0.3299 -0.3199,-0.6097 -0.6997,-0.6097l-1.0095 0c-0.04,0 -0.05,0.05 -0.01,0.09 0.1399,0.1 0.1599,0.1999 0.1599,0.3398l-0.0001 0z"/>
  <path class="fil0" d="M4.334 0.6494c0.05,0.6297 1.1595,0.7497 1.0395,1.1595 -0.07,0.2399 -0.4698,0.1999 -0.9196,-0.4598 -0.07,-0.1199 -0.1299,-0.09 -0.1299,0.02l0 0.6297c0,0.1799 0.2199,-0.11 0.3898,-0.06 0.1399,0.05 0.2699,0.1299 0.5098,0.1199l0.01 0c0.4398,-0.01 0.7796,-0.3199 0.7297,-0.6397 -0.04,-0.2399 -0.2899,-0.4198 -0.5198,-0.5797 -0.2599,-0.1799 -0.5597,-0.3498 -0.5198,-0.5997 0.03,-0.1899 0.3498,-0.2099 0.3199,0.09 -0.03,0.4998 0.8296,0.4598 0.6497,0.03 -0.11,-0.2699 -0.4998,-0.3798 -0.8196,-0.3798l-0.01 0c-0.4498,0.02 -0.7597,0.2499 -0.7297,0.6697l0 -0.0001z"/>
  <path class="fil0" d="M5.6634 4.2778l-0.6997 -1.4693c-0.09,-0.1899 -0.2199,-0.2799 -0.4398,-0.2799l-0.4598 0c-0.04,0 -0.06,0.05 -0.02,0.08 0.1399,0.11 0.1699,0.1 0.1699,0.2499l0 1.4094c0,0.1499 -0.03,0.1499 -0.1699,0.2499 -0.04,0.04 -0.02,0.09 0.02,0.09l0.4198 0c0.04,0 0.06,-0.05 0.01,-0.09 -0.1399,-0.1 -0.1699,-0.1 -0.1699,-0.2499l0 -1.4094 0.6997 1.4593c0.1,0.1999 0.2299,0.2899 0.4498,0.2899l0.4598 0c0.04,0 0.06,-0.05 0.01,-0.09 -0.1299,-0.1 -0.1599,-0.1 -0.1599,-0.2499l0 -1.4094c0,-0.1499 0.03,-0.1399 0.1599,-0.2499 0.05,-0.03 0.03,-0.08 -0.01,-0.08l-0.4198 0c-0.04,0 -0.06,0.05 -0.01,0.08 0.1299,0.11 0.1599,0.1 0.1599,0.2499l0 1.4194z"/>
  <path class="fil0" d="M3.5244 3.828l0 -0.5198c0,-0.06 -0.05,-0.07 -0.08,-0.02 -0.11,0.1299 -0.09,0.2199 -0.3398,0.2199l-0.08 0c0,-0.3998 0.03,-0.7097 0.05,-0.8596 0.1299,0 0.1999,0.02 0.2999,0.1999 0.1499,0.2599 0.5398,0.2499 0.5398,-0.05 0,-0.2099 -0.2599,-0.2699 -0.4698,-0.2699l-1.1395 0c-0.05,0 -0.06,0.05 -0.02,0.08 0.1399,0.11 0.1699,0.1999 0.1699,0.3498l0 1.2195c0,0.1499 -0.03,0.2399 -0.1699,0.3398 -0.04,0.04 -0.03,0.09 0.02,0.09l1.5193 0c0.08,0 0.11,-0.03 0.11,-0.1199l0 -0.3498c0,-0.05 -0.05,-0.06 -0.08,-0.02 -0.11,0.1399 -0.2199,0.3698 -0.4698,0.3698l-0.3099 0c-0.04,-0.3099 -0.05,-0.5997 -0.05,-0.8696l0.08 0c0.2499,0 0.2299,0.09 0.3398,0.2299 0.03,0.04 0.08,0.03 0.08,-0.02z"/>
  <path class="fil0" d="M2.155 4.5077c-0.1499,-0.1199 -0.1599,-0.6597 -0.1599,-0.9396 0,-0.2899 0.01,-0.8196 0.1599,-0.9396 0.04,-0.03 0.04,-0.1 -0.04,-0.1l-0.8496 0c-0.04,0 -0.06,0.05 -0.02,0.08 0.1499,0.11 0.1699,0.1999 0.1699,0.3498l0 0.5897 -0.6397 0c0,-0.2899 0.02,-0.8096 0.1699,-0.9196 0.05,-0.03 0.05,-0.1 -0.04,-0.1l-0.8496 0c-0.04,0 -0.06,0.05 -0.02,0.08 0.1499,0.11 0.1699,0.1999 0.1699,0.3498l0 1.2195c0,0.1499 -0.02,0.2399 -0.1699,0.3398 -0.04,0.04 -0.02,0.09 0.02,0.09l0.8496 0c0.09,0 0.09,-0.07 0.04,-0.1 -0.1299,-0.11 -0.1599,-0.5498 -0.1699,-0.8396l0.6397 0 0 0.5098c0,0.1499 -0.02,0.2399 -0.1699,0.3398 -0.04,0.04 -0.02,0.09 0.02,0.09l0.8496 0c0.08,0 0.08,-0.07 0.04,-0.1l0 0.0002z"/>
  <path class="fil1" d="M6.643 4.0978c0,-0.1599 -0.1299,-0.2899 -0.2899,-0.2899 -0.1699,0 -0.2999,0.1299 -0.2999,0.2899 0,0.1599 0.1299,0.2899 0.2999,0.2899 0.1599,0 0.2899,-0.1299 0.2899,-0.2899z"/>
 </g>
</svg>
