<?xml version="1.0" encoding="UTF-8"?>
<!DOCTYPE svg PUBLIC "-//W3C//DTD SVG 1.1//EN" "http://www.w3.org/Graphics/SVG/1.1/DTD/svg11.dtd">
<!-- Creator: CorelDRAW -->
<svg xmlns="http://www.w3.org/2000/svg" xml:space="preserve" width="15.693mm" height="2.832mm" style="shape-rendering:geometricPrecision; text-rendering:geometricPrecision; image-rendering:optimizeQuality; fill-rule:evenodd; clip-rule:evenodd"
viewBox="0 0 15.693 2.832"
 xmlns:xlink="http://www.w3.org/1999/xlink"
 version="1.1">
 <defs>
  <style type="text/css">
   <![CDATA[
    .fil0 {fill:#F27C4A}
    .fil1 {fill:white}
   ]]>
  </style>
 </defs>
 <g id="Layer_x0020_1">
  <metadata id="CorelCorpID_0Corel-Layer"/>
  <path class="fil0" d="M15.7045 2.1308c0,-0.1999 -0.16,-0.3599 -0.3599,-0.3599 -0.19,0 -0.3599,0.16 -0.3599,0.3599 0,0.1999 0.17,0.3599 0.3599,0.3599 0.1999,0 0.3599,-0.16 0.3599,-0.3599z"/>
  <path class="fil1" d="M2.9078 2.7007c-0.2299,-0.14 -0.2399,-0.2699 -0.3099,-0.4699 -0.01,-0.02 -0.5099,-1.6596 -0.5099,-1.6896 -0.07,-0.1999 -0.2799,-0.5499 -0.6298,-0.5499l-0.5399 0c-0.06,0 -0.1,0.07 -0.05,0.12 0.14,0.14 0.13,0.3199 0.07,0.5199l-0.4999 1.5996c-0.09,0.2599 -0.2199,0.3799 -0.3899,0.4699 -0.07,0.04 -0.03,0.12 0.03,0.12l0.8298 0c0.06,0 0.08,-0.08 0.04,-0.12 -0.3399,-0.3199 -0.2999,-0.5998 -0.2499,-0.7498l0.9598 0c0.05,0.3299 0.06,0.6198 -0.04,0.7498 -0.04,0.05 0,0.12 0.05,0.12l1.2297 0c0.06,0 0.09,-0.08 0.01,-0.12l0 0 -0.0001 0zm-2.1595 -0.9098l0.4099 -1.3397c0.11,0.1 0.3599,0.7498 0.4699,1.3397l-0.8798 0 0 0zm3.979 -1.0197c-0.2699,0 -0.5299,0.3099 -0.6598,0.4999l0.05 -0.3599c0.01,-0.07 0.06,-0.16 -0.05,-0.14 -0.2099,0.05 -0.4299,0.4099 -0.9698,0.4099 -0.05,0 -0.07,0.06 -0.02,0.11 0.19,0.15 0.2299,0.2699 0.2299,0.4699l0 0.4699c0,0.1999 -0.04,0.3299 -0.2299,0.4699 -0.05,0.04 -0.03,0.12 0.02,0.12l1.0797 0c0.12,0 0.12,-0.1 0.06,-0.14 -0.16,-0.12 -0.2299,-0.5099 -0.19,-1.1297 0.1,-0.1999 0.2899,-0.3999 0.4199,-0.3999 0.1,0 0.05,0.11 0.03,0.2299 -0.06,0.4299 0.8698,0.2599 0.7698,-0.2699 -0.05,-0.2299 -0.3199,-0.3399 -0.5399,-0.3399l0 0 0.0001 -0.0001zm1.4096 0.2899c0.02,-0.18 0.2899,-0.2099 0.2699,0.1 -0.05,0.4899 0.8898,0.3999 0.6998,-0.02 -0.13,-0.2699 -0.5399,-0.3799 -0.8898,-0.3699l-0.01 0c-0.4999,0.01 -0.8798,0.2699 -0.8298,0.6798 0.06,0.5599 1.0997,0.5998 0.9897,1.0697 -0.04,0.18 -0.2999,0.2099 -0.2699,-0.1 0.04,-0.4799 -0.8998,-0.3999 -0.6998,0.03 0.12,0.2599 0.5299,0.3699 0.8898,0.3699l0.01 -0.01c0.4799,-0.01 0.8798,-0.3399 0.8298,-0.6498 -0.08,-0.5099 -1.0797,-0.6198 -0.9897,-1.0997zm3.8191 1.6396c-0.19,-0.14 -0.2299,-0.2699 -0.2299,-0.4699l0 -0.3699c0,-0.6098 -0.3699,-1.0897 -0.9798,-1.0897 -0.2099,0 -0.3799,0.12 -0.4999,0.2699 0.01,-0.2999 0.04,-0.6098 0.09,-0.9098 0.01,-0.07 0.06,-0.16 -0.05,-0.14 -0.2099,0.04 -0.4499,0.4099 -0.9798,0.4099 -0.06,0 -0.08,0.07 -0.03,0.11 0.1999,0.14 0.2299,0.2699 0.2299,0.4699l0 1.2497c0,0.1999 -0.03,0.3299 -0.2299,0.4699 -0.05,0.04 -0.03,0.12 0.03,0.12l1.0897 0c0.13,0 0.12,-0.1 0.06,-0.14 -0.13,-0.1 -0.2199,-0.6698 -0.2199,-1.3397 0.11,-0.2199 0.2499,-0.3399 0.3499,-0.3399 0.3799,0 0.5499,1.3597 0.19,1.6796 -0.05,0.05 -0.06,0.14 0.06,0.14l1.0997 0c0.06,0 0.08,-0.08 0.02,-0.12l0 0zm2.0095 -0.5199c-0.15,0.1999 -0.4899,0.2799 -0.6898,0.2199 -0.2299,-0.07 -0.3499,-0.2199 -0.3999,-0.3999 0.11,0.05 0.2399,0.08 0.3799,0.08 0.4399,0 0.7898,-0.2899 0.7898,-0.6498 0,-0.3699 -0.4599,-0.6598 -0.8998,-0.6598 -0.6598,0 -1.1497,0.4599 -1.1497,1.0197 0,0.5699 0.4899,1.0297 1.1097,1.0297 0.4299,0 0.7998,-0.2299 0.9798,-0.5599 0.03,-0.06 -0.06,-0.15 -0.12,-0.08l0 0 0 0.0001zm-0.8398 -1.2597c0.15,0 0.2499,0.2299 0.2499,0.5099 0,0.2699 -0.1,0.4899 -0.2499,0.4899 -0.14,0 -0.2799,-0.18 -0.2799,-0.4699 0,-0.3599 0.19,-0.5299 0.2799,-0.5299zm3.779 1.7796c-0.1999,-0.14 -0.2299,-0.2699 -0.2299,-0.4699l0 -0.3699c0,-0.6098 -0.3799,-1.0897 -0.9798,-1.0897 -0.18,0 -0.3199,0.11 -0.4299,0.2599l0.01 -0.12c0.01,-0.07 0.07,-0.16 -0.05,-0.14 -0.2099,0.05 -0.4299,0.4099 -0.9598,0.4099 -0.06,0 -0.08,0.06 -0.02,0.11 0.19,0.15 0.2199,0.2699 0.2199,0.4699l0 0.4699c0,0.1999 -0.03,0.3299 -0.2199,0.4699 -0.06,0.04 -0.04,0.12 0.02,0.12l1.0797 0c0.11,0 0.11,-0.1 0.05,-0.14 -0.16,-0.13 -0.2399,-0.5799 -0.18,-1.2797 0.1,-0.2099 0.2099,-0.3799 0.3199,-0.3799 0.3799,0 0.5399,1.3397 0.19,1.6596 -0.06,0.05 -0.07,0.14 0.05,0.14l1.0997 0c0.06,0 0.08,-0.08 0.03,-0.12l0 0 0.0001 0z"/>
 </g>
</svg>
